<svg width="40" height="40" viewBox="0 0 40 40" fill="none" xmlns="http://www.w3.org/2000/svg">
  <defs>
    <linearGradient id="dragonGradient" x1="0%" y1="0%" x2="100%" y2="100%">
      <stop offset="0%" style="stop-color:#FF6B8A;stop-opacity:1" />
      <stop offset="100%" style="stop-color:#4ECDC4;stop-opacity:1" />
    </linearGradient>
  </defs>
  
  <!-- Dragon body -->
  <ellipse cx="20" cy="25" rx="15" ry="8" fill="url(#dragonGradient)" opacity="0.9"/>
  
  <!-- Dragon head -->
  <circle cx="20" cy="15" r="8" fill="url(#dragonGradient)"/>
  
  <!-- Dragon wings -->
  <path d="M8 18 Q5 12 12 10 Q18 12 15 18" fill="url(#dragonGradient)" opacity="0.7"/>
  <path d="M32 18 Q35 12 28 10 Q22 12 25 18" fill="url(#dragonGradient)" opacity="0.7"/>
  
  <!-- Dragon eyes -->
  <circle cx="17" cy="13" r="1.5" fill="white"/>
  <circle cx="23" cy="13" r="1.5" fill="white"/>
  <circle cx="17" cy="13" r="0.8" fill="#333"/>
  <circle cx="23" cy="13" r="0.8" fill="#333"/>
  
  <!-- Dragon tail -->
  <path d="M35 25 Q38 22 36 28 Q33 30 35 25" fill="url(#dragonGradient)" opacity="0.8"/>
  
  <!-- Fire breath -->
  <path d="M12 15 Q8 14 6 16 Q8 18 12 17" fill="#FFD700" opacity="0.6"/>
  <circle cx="5" cy="16" r="1" fill="#FF6B8A" opacity="0.8"/>
</svg>